G04 #@! TF.FileFunction,Copper,L2,Bot,Signal*
%FSLAX46Y46*%
G04 Gerber Fmt 4.6, Leading zero omitted, Abs format (unit mm)*
G04 Created by KiCad (PCBNEW 4.0.7-e2-6376~58~ubuntu16.04.1) date Wed Apr  4 21:12:27 2018*
%MOMM*%
%LPD*%
G01*
G04 APERTURE LIST*
%ADD10C,0.100000*%
%ADD11O,1.600000X2.300000*%
%ADD12C,1.400000*%
%ADD13O,1.400000X1.400000*%
%ADD14C,2.000000*%
%ADD15C,2.340000*%
%ADD16R,2.400000X1.600000*%
%ADD17O,2.400000X1.600000*%
%ADD18R,1.600000X1.600000*%
%ADD19C,1.600000*%
%ADD20R,1.700000X1.700000*%
%ADD21O,1.700000X1.700000*%
%ADD22C,0.800000*%
%ADD23C,1.000000*%
%ADD24C,0.500000*%
%ADD25C,0.200000*%
G04 APERTURE END LIST*
D10*
D11*
X21590000Y40640000D03*
X24130000Y40640000D03*
X26670000Y40640000D03*
X29210000Y40640000D03*
X31750000Y40640000D03*
X34290000Y40640000D03*
X36830000Y40640000D03*
X36830000Y48260000D03*
X34290000Y48260000D03*
X31750000Y48260000D03*
X29210000Y48260000D03*
X26670000Y48260000D03*
X24130000Y48260000D03*
X21590000Y48260000D03*
D12*
X90170000Y19685000D03*
D13*
X82550000Y19685000D03*
D11*
X133350000Y27940000D03*
X130810000Y27940000D03*
X128270000Y27940000D03*
X125730000Y27940000D03*
X123190000Y27940000D03*
X120650000Y27940000D03*
X118110000Y27940000D03*
X115570000Y27940000D03*
X113030000Y27940000D03*
X110490000Y27940000D03*
X107950000Y27940000D03*
X105410000Y27940000D03*
X102870000Y27940000D03*
X100330000Y27940000D03*
X97790000Y27940000D03*
X95250000Y27940000D03*
X95250000Y12700000D03*
X97790000Y12700000D03*
X100330000Y12700000D03*
X102870000Y12700000D03*
X105410000Y12700000D03*
X107950000Y12700000D03*
X110490000Y12700000D03*
X113030000Y12700000D03*
X115570000Y12700000D03*
X118110000Y12700000D03*
X120650000Y12700000D03*
X123190000Y12700000D03*
X125730000Y12700000D03*
X128270000Y12700000D03*
X130810000Y12700000D03*
X133350000Y12700000D03*
D12*
X30480000Y31750000D03*
D13*
X38100000Y31750000D03*
D11*
X69850000Y40640000D03*
X72390000Y40640000D03*
X74930000Y40640000D03*
X77470000Y40640000D03*
X80010000Y40640000D03*
X82550000Y40640000D03*
X85090000Y40640000D03*
X85090000Y48260000D03*
X82550000Y48260000D03*
X80010000Y48260000D03*
X77470000Y48260000D03*
X74930000Y48260000D03*
X72390000Y48260000D03*
X69850000Y48260000D03*
X166370000Y40640000D03*
X168910000Y40640000D03*
X171450000Y40640000D03*
X173990000Y40640000D03*
X176530000Y40640000D03*
X179070000Y40640000D03*
X181610000Y40640000D03*
X181610000Y48260000D03*
X179070000Y48260000D03*
X176530000Y48260000D03*
X173990000Y48260000D03*
X171450000Y48260000D03*
X168910000Y48260000D03*
X166370000Y48260000D03*
X45720000Y40640000D03*
X48260000Y40640000D03*
X50800000Y40640000D03*
X53340000Y40640000D03*
X55880000Y40640000D03*
X58420000Y40640000D03*
X60960000Y40640000D03*
X60960000Y48260000D03*
X58420000Y48260000D03*
X55880000Y48260000D03*
X53340000Y48260000D03*
X50800000Y48260000D03*
X48260000Y48260000D03*
X45720000Y48260000D03*
X93980000Y40640000D03*
X96520000Y40640000D03*
X99060000Y40640000D03*
X101600000Y40640000D03*
X104140000Y40640000D03*
X106680000Y40640000D03*
X109220000Y40640000D03*
X109220000Y48260000D03*
X106680000Y48260000D03*
X104140000Y48260000D03*
X101600000Y48260000D03*
X99060000Y48260000D03*
X96520000Y48260000D03*
X93980000Y48260000D03*
X118110000Y40640000D03*
X120650000Y40640000D03*
X123190000Y40640000D03*
X125730000Y40640000D03*
X128270000Y40640000D03*
X130810000Y40640000D03*
X133350000Y40640000D03*
X133350000Y48260000D03*
X130810000Y48260000D03*
X128270000Y48260000D03*
X125730000Y48260000D03*
X123190000Y48260000D03*
X120650000Y48260000D03*
X118110000Y48260000D03*
X142240000Y40640000D03*
X144780000Y40640000D03*
X147320000Y40640000D03*
X149860000Y40640000D03*
X152400000Y40640000D03*
X154940000Y40640000D03*
X157480000Y40640000D03*
X157480000Y48260000D03*
X154940000Y48260000D03*
X152400000Y48260000D03*
X149860000Y48260000D03*
X147320000Y48260000D03*
X144780000Y48260000D03*
X142240000Y48260000D03*
X190500000Y40640000D03*
X193040000Y40640000D03*
X195580000Y40640000D03*
X198120000Y40640000D03*
X200660000Y40640000D03*
X203200000Y40640000D03*
X205740000Y40640000D03*
X205740000Y48260000D03*
X203200000Y48260000D03*
X200660000Y48260000D03*
X198120000Y48260000D03*
X195580000Y48260000D03*
X193040000Y48260000D03*
X190500000Y48260000D03*
X214630000Y40640000D03*
X217170000Y40640000D03*
X219710000Y40640000D03*
X222250000Y40640000D03*
X224790000Y40640000D03*
X227330000Y40640000D03*
X229870000Y40640000D03*
X229870000Y48260000D03*
X227330000Y48260000D03*
X224790000Y48260000D03*
X222250000Y48260000D03*
X219710000Y48260000D03*
X217170000Y48260000D03*
X214630000Y48260000D03*
D14*
X32385000Y17940000D03*
X32385000Y27940000D03*
D12*
X52070000Y19685000D03*
D13*
X52070000Y27305000D03*
D15*
X19685000Y19765000D03*
X19685000Y24765000D03*
X19685000Y29765000D03*
X24685000Y19765000D03*
X24685000Y24765000D03*
X24685000Y29765000D03*
D16*
X40640000Y27305000D03*
D17*
X48260000Y19685000D03*
X40640000Y24765000D03*
X48260000Y22225000D03*
X40640000Y22225000D03*
X48260000Y24765000D03*
X40640000Y19685000D03*
X48260000Y27305000D03*
D16*
X197485000Y20320000D03*
D17*
X205105000Y12700000D03*
X197485000Y17780000D03*
X205105000Y15240000D03*
X197485000Y15240000D03*
X205105000Y17780000D03*
X197485000Y12700000D03*
X205105000Y20320000D03*
D14*
X147795000Y13970000D03*
X137795000Y13970000D03*
X153035000Y17780000D03*
X153035000Y7780000D03*
D18*
X200065000Y29845000D03*
D19*
X202565000Y29845000D03*
D18*
X211455000Y21550000D03*
D19*
X211455000Y19050000D03*
D18*
X210225000Y12700000D03*
D19*
X212725000Y12700000D03*
D20*
X226060000Y15240000D03*
D21*
X226060000Y17780000D03*
D12*
X191770000Y8890000D03*
D13*
X199390000Y8890000D03*
D15*
X165735000Y20240000D03*
X165735000Y15240000D03*
X165735000Y10240000D03*
X160735000Y20240000D03*
X160735000Y15240000D03*
X160735000Y10240000D03*
D14*
X52070000Y13970000D03*
X42070000Y13970000D03*
D12*
X82550000Y29845000D03*
D13*
X90170000Y29845000D03*
D12*
X90170000Y27305000D03*
D13*
X82550000Y27305000D03*
D12*
X90170000Y24765000D03*
D13*
X82550000Y24765000D03*
D12*
X90170000Y22225000D03*
D13*
X82550000Y22225000D03*
D12*
X90170000Y17145000D03*
D13*
X82550000Y17145000D03*
D12*
X90170000Y14605000D03*
D13*
X82550000Y14605000D03*
D12*
X90170000Y12065000D03*
D13*
X82550000Y12065000D03*
D12*
X90170000Y9525000D03*
D13*
X82550000Y9525000D03*
D19*
X21550000Y52070000D03*
X19050000Y52070000D03*
X45045000Y52705000D03*
X42545000Y52705000D03*
X69175000Y52705000D03*
X66675000Y52705000D03*
X93305000Y52705000D03*
X90805000Y52705000D03*
X117435000Y52705000D03*
X114935000Y52705000D03*
X141565000Y52705000D03*
X139065000Y52705000D03*
X165695000Y52705000D03*
X163195000Y52705000D03*
X189825000Y52705000D03*
X187325000Y52705000D03*
X213955000Y52705000D03*
X211455000Y52705000D03*
X137795000Y8890000D03*
X140295000Y8890000D03*
X202525000Y24130000D03*
X200025000Y24130000D03*
X202605000Y8890000D03*
X205105000Y8890000D03*
X37425000Y23535000D03*
X37425000Y26035000D03*
D12*
X79375000Y24765000D03*
D13*
X79375000Y27305000D03*
D12*
X76200000Y22225000D03*
D13*
X76200000Y24765000D03*
D12*
X79375000Y19685000D03*
D13*
X79375000Y22225000D03*
D12*
X76200000Y17145000D03*
D13*
X76200000Y19685000D03*
D12*
X79375000Y14605000D03*
D13*
X79375000Y17145000D03*
D12*
X76200000Y12065000D03*
D13*
X76200000Y14605000D03*
D12*
X79375000Y9525000D03*
D13*
X79375000Y12065000D03*
D20*
X226060000Y25400000D03*
D21*
X226060000Y27940000D03*
D22*
X107950000Y5080000D03*
X107950000Y7620000D03*
X230505000Y57150000D03*
X230505000Y52705000D03*
X207645000Y57150000D03*
X183515000Y57150000D03*
X159385000Y57150000D03*
X135255000Y57150000D03*
X111125000Y57150000D03*
X62865000Y57150000D03*
X38735000Y57150000D03*
X38735000Y52705000D03*
X62865000Y52705000D03*
X86995000Y57150000D03*
X207645000Y52705000D03*
X183515000Y52705000D03*
X159385000Y52705000D03*
X135255000Y52705000D03*
X111125000Y52705000D03*
X86995000Y52705000D03*
X153035000Y34925000D03*
X153035000Y28575000D03*
X149225000Y28575000D03*
X149225000Y32385000D03*
X151765000Y28575000D03*
X151765000Y32385000D03*
X158115000Y28575000D03*
X158115000Y31750000D03*
X160655000Y28575000D03*
X160655000Y31750000D03*
D23*
X234950000Y52705000D02*
X234950000Y25336500D01*
X234950000Y25336500D02*
X234950000Y11430000D01*
X226060000Y25400000D02*
X234886500Y25400000D01*
X234886500Y25400000D02*
X234950000Y25336500D01*
X212546370Y55245000D02*
X232410000Y55245000D01*
X232410000Y55245000D02*
X234950000Y52705000D01*
X234950000Y11430000D02*
X227965000Y4445000D01*
X227965000Y4445000D02*
X196850000Y4445000D01*
X214630000Y40640000D02*
X214630000Y44450000D01*
X214630000Y44450000D02*
X214630000Y48260000D01*
D24*
X222250000Y40640000D02*
X222250000Y42290000D01*
X222250000Y42290000D02*
X220090000Y44450000D01*
X220090000Y44450000D02*
X214630000Y44450000D01*
X142240000Y48260000D02*
X144780000Y48260000D01*
X118110000Y48260000D02*
X120650000Y48260000D01*
X93980000Y48260000D02*
X96520000Y48260000D01*
X69850000Y48260000D02*
X72390000Y48260000D01*
X45720000Y48260000D02*
X48260000Y48260000D01*
X39370000Y23495000D02*
X39330000Y23535000D01*
X39330000Y23535000D02*
X37425000Y23535000D01*
D25*
X41910000Y23495000D02*
X39370000Y23495000D01*
D24*
X42545000Y23495000D02*
X41910000Y23495000D01*
X43180000Y24130000D02*
X42545000Y23495000D01*
X43180000Y24142830D02*
X43180000Y24130000D01*
X43180000Y27940000D02*
X43180000Y24142830D01*
X41910000Y29210000D02*
X43180000Y27940000D01*
X41767170Y29210000D02*
X41910000Y29210000D01*
X35560000Y29210000D02*
X41767170Y29210000D01*
X34925000Y29845000D02*
X35560000Y29210000D01*
X34925000Y33655000D02*
X34925000Y29845000D01*
X30480000Y38100000D02*
X34925000Y33655000D01*
X30480000Y39370000D02*
X30480000Y38100000D01*
D25*
X30480000Y41910000D02*
X30480000Y39370000D01*
D24*
X29210000Y43180000D02*
X30480000Y41910000D01*
X26035000Y43180000D02*
X29210000Y43180000D01*
X24130000Y45085000D02*
X26035000Y43180000D01*
X24130000Y48260000D02*
X24130000Y45085000D01*
X152400000Y48260000D02*
X152400000Y50165000D01*
X152400000Y50165000D02*
X149860000Y52705000D01*
X149860000Y52705000D02*
X142795000Y52705000D01*
X142795000Y52705000D02*
X141565000Y52705000D01*
X196850000Y8890000D02*
X196850000Y4445000D01*
D23*
X196850000Y4445000D02*
X139700000Y4445000D01*
D24*
X205105000Y15240000D02*
X203200000Y15240000D01*
X203200000Y15240000D02*
X196850000Y8890000D01*
D23*
X139700000Y4445000D02*
X137795000Y6350000D01*
X137795000Y6350000D02*
X137795000Y8890000D01*
X213955000Y52705000D02*
X213955000Y48935000D01*
X213955000Y48935000D02*
X214630000Y48260000D01*
X137795000Y8890000D02*
X136663630Y8890000D01*
X137795000Y8890000D02*
X137160000Y8890000D01*
X137160000Y8890000D02*
X133350000Y12700000D01*
D24*
X211455000Y19050000D02*
X207645000Y15240000D01*
X207645000Y15240000D02*
X205105000Y15240000D01*
X37425000Y21200000D02*
X37425000Y22403630D01*
X38940000Y19685000D02*
X37425000Y21200000D01*
X37425000Y22403630D02*
X37425000Y23535000D01*
X40640000Y19685000D02*
X38940000Y19685000D01*
X48260000Y27305000D02*
X47860000Y27305000D01*
X47860000Y27305000D02*
X43415000Y31750000D01*
X43415000Y31750000D02*
X39089949Y31750000D01*
X39089949Y31750000D02*
X38100000Y31750000D01*
X45720000Y23065000D02*
X45720000Y25165000D01*
X45720000Y25165000D02*
X47860000Y27305000D01*
X40640000Y19685000D02*
X42340000Y19685000D01*
X42340000Y19685000D02*
X45720000Y23065000D01*
D23*
X212546370Y55245000D02*
X189865000Y55245000D01*
X189865000Y55245000D02*
X165735000Y55245000D01*
D24*
X189825000Y52705000D02*
X189825000Y55205000D01*
X189825000Y55205000D02*
X189865000Y55245000D01*
D23*
X165735000Y55245000D02*
X141605000Y55245000D01*
D24*
X165695000Y52705000D02*
X165695000Y55205000D01*
X165695000Y55205000D02*
X165735000Y55245000D01*
D23*
X141605000Y55245000D02*
X117475000Y55245000D01*
D24*
X141565000Y52705000D02*
X141565000Y55205000D01*
X141565000Y55205000D02*
X141605000Y55245000D01*
D23*
X117475000Y55245000D02*
X93345000Y55245000D01*
D24*
X117435000Y52705000D02*
X117435000Y55205000D01*
X117435000Y55205000D02*
X117475000Y55245000D01*
X93305000Y55205000D02*
X93345000Y55245000D01*
D23*
X93345000Y55245000D02*
X69215000Y55245000D01*
D24*
X93305000Y52705000D02*
X93305000Y55205000D01*
D23*
X69215000Y55245000D02*
X45085000Y55245000D01*
D24*
X69175000Y52705000D02*
X69175000Y53836370D01*
X69175000Y53836370D02*
X69215000Y53876370D01*
X69215000Y53876370D02*
X69215000Y55245000D01*
X45045000Y53836370D02*
X45085000Y53876370D01*
D23*
X45085000Y55245000D02*
X31750000Y55245000D01*
D24*
X45045000Y52705000D02*
X45045000Y53836370D01*
X45085000Y53876370D02*
X45085000Y55245000D01*
D23*
X31750000Y55245000D02*
X24725000Y55245000D01*
X31750000Y52705000D02*
X31750000Y55245000D01*
X213955000Y52705000D02*
X213955000Y53836370D01*
X213955000Y53836370D02*
X212546370Y55245000D01*
X24725000Y55245000D02*
X21550000Y52070000D01*
D24*
X224790000Y48260000D02*
X224790000Y49910000D01*
X224790000Y49910000D02*
X221995000Y52705000D01*
X221995000Y52705000D02*
X215185000Y52705000D01*
X215185000Y52705000D02*
X213955000Y52705000D01*
X55880000Y48260000D02*
X55880000Y49910000D01*
X55880000Y49910000D02*
X53085000Y52705000D01*
X53085000Y52705000D02*
X46275000Y52705000D01*
X46275000Y52705000D02*
X45045000Y52705000D01*
X45720000Y48260000D02*
X45720000Y52030000D01*
X45720000Y52030000D02*
X45045000Y52705000D01*
X80010000Y48260000D02*
X80010000Y49037828D01*
X80010000Y49037828D02*
X76342828Y52705000D01*
X76342828Y52705000D02*
X70405000Y52705000D01*
X70405000Y52705000D02*
X69175000Y52705000D01*
X69850000Y48260000D02*
X69850000Y52030000D01*
X69850000Y52030000D02*
X69175000Y52705000D01*
X104140000Y48260000D02*
X104140000Y49910000D01*
X104140000Y49910000D02*
X101345000Y52705000D01*
X101345000Y52705000D02*
X94535000Y52705000D01*
X94535000Y52705000D02*
X93305000Y52705000D01*
X93980000Y48260000D02*
X93980000Y52030000D01*
X93980000Y52030000D02*
X93305000Y52705000D01*
X128270000Y48260000D02*
X128270000Y49910000D01*
X128270000Y49910000D02*
X125475000Y52705000D01*
X125475000Y52705000D02*
X118665000Y52705000D01*
X118665000Y52705000D02*
X117435000Y52705000D01*
X118110000Y48260000D02*
X118110000Y52030000D01*
X118110000Y52030000D02*
X117435000Y52705000D01*
X142240000Y48260000D02*
X142240000Y52030000D01*
X142240000Y52030000D02*
X141565000Y52705000D01*
X176530000Y48260000D02*
X176530000Y49910000D01*
X176530000Y49910000D02*
X173735000Y52705000D01*
X173735000Y52705000D02*
X166925000Y52705000D01*
X166925000Y52705000D02*
X165695000Y52705000D01*
X166370000Y48260000D02*
X166370000Y52030000D01*
X166370000Y52030000D02*
X165695000Y52705000D01*
X200660000Y48260000D02*
X200660000Y49910000D01*
X200660000Y49910000D02*
X197865000Y52705000D01*
X197865000Y52705000D02*
X191055000Y52705000D01*
X191055000Y52705000D02*
X189825000Y52705000D01*
X190500000Y48260000D02*
X190500000Y52030000D01*
X190500000Y52030000D02*
X189825000Y52705000D01*
X24130000Y48260000D02*
X21590000Y48260000D01*
X21590000Y52070000D02*
X21590000Y48260000D01*
X45720000Y46610000D02*
X45720000Y44450000D01*
X45720000Y44450000D02*
X45720000Y40640000D01*
X53340000Y40640000D02*
X53340000Y42290000D01*
X53340000Y42290000D02*
X51180000Y44450000D01*
X51180000Y44450000D02*
X45720000Y44450000D01*
X45720000Y48260000D02*
X45720000Y46610000D01*
X69850000Y46610000D02*
X69850000Y44450000D01*
X77470000Y42290000D02*
X75310000Y44450000D01*
X69850000Y44450000D02*
X69850000Y40640000D01*
X77470000Y40640000D02*
X77470000Y42290000D01*
X75310000Y44450000D02*
X69850000Y44450000D01*
X69850000Y48260000D02*
X69850000Y46610000D01*
X93980000Y46610000D02*
X93980000Y44450000D01*
X93980000Y44450000D02*
X93980000Y40640000D01*
X101600000Y40640000D02*
X101600000Y42290000D01*
X101600000Y42290000D02*
X99440000Y44450000D01*
X99440000Y44450000D02*
X93980000Y44450000D01*
X93980000Y48260000D02*
X93980000Y46610000D01*
X118110000Y48260000D02*
X118110000Y44450000D01*
X118110000Y44450000D02*
X118110000Y40640000D01*
X122270000Y44450000D02*
X118110000Y44450000D01*
X125730000Y40640000D02*
X125730000Y40990000D01*
X125730000Y40990000D02*
X122270000Y44450000D01*
X142240000Y48260000D02*
X142240000Y44450000D01*
X142240000Y44450000D02*
X142240000Y40640000D01*
X149860000Y42290000D02*
X147700000Y44450000D01*
X149860000Y40640000D02*
X149860000Y42290000D01*
X147700000Y44450000D02*
X142240000Y44450000D01*
X166370000Y48260000D02*
X166370000Y44450000D01*
X166370000Y44450000D02*
X166370000Y40640000D01*
X173990000Y40640000D02*
X173990000Y42290000D01*
X173990000Y42290000D02*
X171830000Y44450000D01*
X171830000Y44450000D02*
X166370000Y44450000D01*
X168910000Y48260000D02*
X166370000Y48260000D01*
X190500000Y46610000D02*
X190500000Y44450000D01*
X195960000Y44450000D02*
X190500000Y44450000D01*
X190500000Y44450000D02*
X190500000Y40640000D01*
X198120000Y40640000D02*
X198120000Y42290000D01*
X198120000Y42290000D02*
X195960000Y44450000D01*
X193040000Y48260000D02*
X190500000Y48260000D01*
X190500000Y48260000D02*
X190500000Y46610000D01*
X217170000Y48260000D02*
X214630000Y48260000D01*
D23*
X31750000Y52705000D02*
X31750000Y48260000D01*
X69676000Y48434000D02*
X69850000Y48260000D01*
X45720000Y48260000D02*
X45720000Y47910000D01*
X229870000Y38165000D02*
X222820000Y31115000D01*
X222820000Y31115000D02*
X213255000Y21550000D01*
X226060000Y27940000D02*
X225210001Y28789999D01*
X225210001Y28789999D02*
X225145001Y28789999D01*
X225145001Y28789999D02*
X222820000Y31115000D01*
D24*
X226060000Y17780000D02*
X225210001Y18629999D01*
X216175001Y18629999D02*
X213255000Y21550000D01*
X225210001Y18629999D02*
X216175001Y18629999D01*
D23*
X32385000Y27940000D02*
X33384999Y28939999D01*
X33384999Y28939999D02*
X33384999Y33290001D01*
X33384999Y33290001D02*
X29210000Y37465000D01*
X29210000Y37465000D02*
X29210000Y40640000D01*
X107950000Y5080000D02*
X28575000Y5080000D01*
X28575000Y5080000D02*
X13970000Y19685000D01*
X13970000Y19685000D02*
X13970000Y40640000D01*
X230505000Y57150000D02*
X207645000Y57150000D01*
X232410000Y50800000D02*
X230505000Y52705000D01*
X232410000Y45330000D02*
X232410000Y50800000D01*
X229870000Y40640000D02*
X229870000Y42790000D01*
X229870000Y42790000D02*
X232410000Y45330000D01*
X229870000Y40640000D02*
X229870000Y38165000D01*
X213255000Y21550000D02*
X211455000Y21550000D01*
D24*
X109855000Y7620000D02*
X107950000Y7620000D01*
X107950000Y7620000D02*
X88265000Y7620000D01*
X107950000Y12700000D02*
X107950000Y11050000D01*
X107950000Y11050000D02*
X107950000Y7620000D01*
X86360000Y9525000D02*
X86360000Y26035000D01*
X86360000Y26035000D02*
X90170000Y29845000D01*
X88265000Y7620000D02*
X86360000Y9525000D01*
X113030000Y10795000D02*
X109855000Y7620000D01*
X113030000Y12700000D02*
X113030000Y10795000D01*
D23*
X149225000Y17145000D02*
X140970000Y17145000D01*
X140970000Y17145000D02*
X137795000Y13970000D01*
X156130000Y10240000D02*
X149225000Y17145000D01*
X160735000Y10240000D02*
X156130000Y10240000D01*
X189230000Y6350000D02*
X164625000Y6350000D01*
X164625000Y6350000D02*
X160735000Y10240000D01*
X191770000Y8890000D02*
X189230000Y6350000D01*
D24*
X212755000Y21550000D02*
X211455000Y21550000D01*
X211455000Y21550000D02*
X211455000Y27305000D01*
X211455000Y27305000D02*
X205105000Y33655000D01*
X205105000Y33655000D02*
X198120000Y33655000D01*
X198120000Y33655000D02*
X194310000Y29845000D01*
X194310000Y29845000D02*
X194310000Y19685000D01*
X194310000Y19685000D02*
X196215000Y17780000D01*
X196215000Y17780000D02*
X197485000Y17780000D01*
X200025000Y24130000D02*
X200025000Y19920000D01*
X200025000Y19920000D02*
X197885000Y17780000D01*
X197885000Y17780000D02*
X197485000Y17780000D01*
X197885000Y17780000D02*
X199390000Y16275000D01*
X199390000Y16275000D02*
X199390000Y14205000D01*
X199390000Y14205000D02*
X197885000Y12700000D01*
X197885000Y12700000D02*
X197485000Y12700000D01*
X197485000Y12700000D02*
X195580000Y12700000D01*
X195580000Y12700000D02*
X191770000Y8890000D01*
D23*
X140335000Y11430000D02*
X140295000Y11390000D01*
X140295000Y11390000D02*
X140295000Y8890000D01*
X137795000Y13970000D02*
X140335000Y11430000D01*
D24*
X90170000Y29845000D02*
X93695000Y29845000D01*
X93695000Y29845000D02*
X95250000Y28290000D01*
X95250000Y28290000D02*
X95250000Y27940000D01*
X42070000Y13970000D02*
X33020000Y13970000D01*
X29845000Y25400000D02*
X32385000Y27940000D01*
X33020000Y13970000D02*
X29845000Y17145000D01*
X29845000Y17145000D02*
X29845000Y25400000D01*
D23*
X37425000Y26035000D02*
X37425000Y27265000D01*
X37425000Y27265000D02*
X37465000Y27305000D01*
X36830000Y27940000D02*
X37465000Y27305000D01*
X37465000Y27305000D02*
X40640000Y27305000D01*
X32385000Y27940000D02*
X36830000Y27940000D01*
X21590000Y57070000D02*
X17780000Y53260000D01*
X17780000Y53260000D02*
X13970000Y49450000D01*
D24*
X19050000Y52070000D02*
X18250001Y52869999D01*
X18250001Y52869999D02*
X18170001Y52869999D01*
X18170001Y52869999D02*
X17780000Y53260000D01*
X42545000Y52705000D02*
X41275000Y52705000D01*
X65405000Y52705000D02*
X64770000Y52705000D01*
X64770000Y52705000D02*
X62865000Y52705000D01*
X66675000Y52705000D02*
X64770000Y52705000D01*
X90805000Y52705000D02*
X89535000Y52705000D01*
X114935000Y52705000D02*
X113665000Y52705000D01*
X139065000Y52705000D02*
X137795000Y52705000D01*
X163195000Y52705000D02*
X161925000Y52705000D01*
X187325000Y52705000D02*
X186055000Y52705000D01*
X211455000Y52705000D02*
X210323630Y52705000D01*
X210323630Y52705000D02*
X210185000Y52705000D01*
D23*
X13970000Y42434000D02*
X13970000Y40640000D01*
X21590000Y40640000D02*
X13970000Y40640000D01*
X13970000Y44450000D02*
X13970000Y42434000D01*
X24130000Y40640000D02*
X21590000Y40640000D01*
X26670000Y40640000D02*
X24130000Y40640000D01*
X29210000Y40640000D02*
X26670000Y40640000D01*
X13970000Y49450000D02*
X13970000Y44450000D01*
X38735000Y57150000D02*
X21670000Y57150000D01*
X21670000Y57150000D02*
X21590000Y57070000D01*
X183515000Y57150000D02*
X207645000Y57150000D01*
X159385000Y57150000D02*
X183515000Y57150000D01*
X135255000Y57150000D02*
X159385000Y57150000D01*
X111125000Y57150000D02*
X135255000Y57150000D01*
X86995000Y57150000D02*
X111125000Y57150000D01*
X62865000Y57150000D02*
X86995000Y57150000D01*
X38735000Y57150000D02*
X62865000Y57150000D01*
D24*
X41275000Y52705000D02*
X38735000Y52705000D01*
X36830000Y40640000D02*
X36830000Y40990000D01*
X36830000Y40990000D02*
X41275000Y45435000D01*
X41275000Y45435000D02*
X41275000Y51715051D01*
X41275000Y51715051D02*
X41275000Y52705000D01*
X60960000Y40640000D02*
X62260000Y40640000D01*
X65405000Y43785000D02*
X65405000Y51715051D01*
X62260000Y40640000D02*
X65405000Y43785000D01*
X65405000Y51715051D02*
X65405000Y52705000D01*
X210185000Y52705000D02*
X207645000Y52705000D01*
X205740000Y40640000D02*
X207040000Y40640000D01*
X207040000Y40640000D02*
X210185000Y43785000D01*
X210185000Y43785000D02*
X210185000Y51715051D01*
X210185000Y51715051D02*
X210185000Y52705000D01*
X186055000Y52705000D02*
X183515000Y52705000D01*
X181610000Y40640000D02*
X182910000Y40640000D01*
X182910000Y40640000D02*
X186055000Y43785000D01*
X186055000Y43785000D02*
X186055000Y51715051D01*
X186055000Y51715051D02*
X186055000Y52705000D01*
X161925000Y52705000D02*
X159385000Y52705000D01*
X157480000Y40640000D02*
X158780000Y40640000D01*
X158780000Y40640000D02*
X161925000Y43785000D01*
X161925000Y43785000D02*
X161925000Y51715051D01*
X161925000Y51715051D02*
X161925000Y52705000D01*
X137795000Y52705000D02*
X135255000Y52705000D01*
X133350000Y40640000D02*
X134650000Y40640000D01*
X134650000Y40640000D02*
X137795000Y43785000D01*
X137795000Y43785000D02*
X137795000Y51715051D01*
X137795000Y51715051D02*
X137795000Y52705000D01*
X113665000Y52705000D02*
X111125000Y52705000D01*
X109220000Y40640000D02*
X109220000Y40990000D01*
X113665000Y51715051D02*
X113665000Y52705000D01*
X109220000Y40990000D02*
X113665000Y45435000D01*
X113665000Y45435000D02*
X113665000Y51715051D01*
X89535000Y52705000D02*
X86995000Y52705000D01*
X85090000Y40640000D02*
X85090000Y42290000D01*
X85090000Y42290000D02*
X89535000Y46735000D01*
X89535000Y46735000D02*
X89535000Y51715051D01*
X89535000Y51715051D02*
X89535000Y52705000D01*
D25*
X53340000Y48260000D02*
X53340000Y46910000D01*
X53340000Y46910000D02*
X55880000Y44370000D01*
X55880000Y44370000D02*
X55880000Y41990000D01*
X55880000Y41990000D02*
X55880000Y40640000D01*
D23*
X55880000Y40290000D02*
X55880000Y40640000D01*
D25*
X74930000Y40640000D02*
X74930000Y39370000D01*
X74930000Y39370000D02*
X74295000Y38735000D01*
X68580000Y38735000D02*
X67945000Y39370000D01*
X74295000Y38735000D02*
X68580000Y38735000D01*
X67945000Y39370000D02*
X67945000Y53340000D01*
X67945000Y53340000D02*
X67310000Y53975000D01*
X67310000Y53975000D02*
X59055000Y53975000D01*
X59055000Y53975000D02*
X58420000Y53340000D01*
X58420000Y53340000D02*
X58420000Y48260000D01*
D23*
X58420000Y48260000D02*
X58420000Y47910000D01*
D25*
X77470000Y48260000D02*
X77470000Y46990000D01*
X77470000Y46990000D02*
X80010000Y44450000D01*
X80010000Y44450000D02*
X80010000Y41990000D01*
X80010000Y41990000D02*
X80010000Y40640000D01*
X99060000Y40640000D02*
X99060000Y40290000D01*
X99060000Y40290000D02*
X97505000Y38735000D01*
X97505000Y38735000D02*
X92710000Y38735000D01*
X92710000Y38735000D02*
X92075000Y39370000D01*
X92075000Y39370000D02*
X92075000Y53340000D01*
X92075000Y53340000D02*
X91440000Y53975000D01*
X91440000Y53975000D02*
X84455000Y53975000D01*
X84455000Y53975000D02*
X82550000Y52070000D01*
X82550000Y52070000D02*
X82550000Y48260000D01*
D23*
X82550000Y48260000D02*
X82550000Y47910000D01*
D25*
X125730000Y48260000D02*
X125730000Y46910000D01*
X125730000Y46910000D02*
X128270000Y44370000D01*
X128270000Y41990000D02*
X128270000Y40640000D01*
X128270000Y44370000D02*
X128270000Y41990000D01*
X147320000Y40640000D02*
X147320000Y39290000D01*
X140970000Y38735000D02*
X140335000Y39370000D01*
X147320000Y39290000D02*
X146765000Y38735000D01*
X140335000Y39370000D02*
X140335000Y53340000D01*
X146765000Y38735000D02*
X140970000Y38735000D01*
X140335000Y53340000D02*
X139700000Y53975000D01*
X139700000Y53975000D02*
X133350000Y53975000D01*
X133350000Y53975000D02*
X130810000Y51435000D01*
X130810000Y51435000D02*
X130810000Y48260000D01*
X149860000Y48260000D02*
X149860000Y46910000D01*
X149860000Y46910000D02*
X152400000Y44370000D01*
X152400000Y44370000D02*
X152400000Y41990000D01*
X152400000Y41990000D02*
X152400000Y40640000D01*
X157480000Y53975000D02*
X154940000Y51435000D01*
X154940000Y51435000D02*
X154940000Y48260000D01*
X163830000Y53975000D02*
X157480000Y53975000D01*
X164465000Y53340000D02*
X163830000Y53975000D01*
X164465000Y39370000D02*
X164465000Y53340000D01*
X165100000Y38735000D02*
X164465000Y39370000D01*
X170895000Y38735000D02*
X165100000Y38735000D01*
X171450000Y40640000D02*
X171450000Y39290000D01*
X171450000Y39290000D02*
X170895000Y38735000D01*
X173990000Y48260000D02*
X173990000Y46910000D01*
X173990000Y46910000D02*
X176530000Y44370000D01*
X176530000Y41990000D02*
X176530000Y40640000D01*
X176530000Y44370000D02*
X176530000Y41990000D01*
X180340000Y53975000D02*
X179070000Y52705000D01*
X179070000Y52705000D02*
X179070000Y48260000D01*
X187960000Y53975000D02*
X180340000Y53975000D01*
X188595000Y53340000D02*
X187960000Y53975000D01*
X188595000Y39370000D02*
X188595000Y53340000D01*
X189230000Y38735000D02*
X188595000Y39370000D01*
X195025000Y38735000D02*
X189230000Y38735000D01*
X195580000Y40640000D02*
X195580000Y39290000D01*
X195580000Y39290000D02*
X195025000Y38735000D01*
D23*
X195580000Y40290000D02*
X195580000Y40640000D01*
D25*
X198120000Y48260000D02*
X198120000Y46910000D01*
X200660000Y41990000D02*
X200660000Y40640000D01*
X198120000Y46910000D02*
X200660000Y44370000D01*
X200660000Y44370000D02*
X200660000Y41990000D01*
X203835000Y53975000D02*
X203200000Y53340000D01*
X203200000Y53340000D02*
X203200000Y48260000D01*
X212090000Y53975000D02*
X203835000Y53975000D01*
X212725000Y53340000D02*
X212090000Y53975000D01*
X212725000Y39370000D02*
X212725000Y53340000D01*
X213360000Y38735000D02*
X212725000Y39370000D01*
X219155000Y38735000D02*
X213360000Y38735000D01*
X219710000Y40640000D02*
X219710000Y39290000D01*
X219710000Y39290000D02*
X219155000Y38735000D01*
X222250000Y48260000D02*
X222250000Y46910000D01*
X222250000Y46910000D02*
X224790000Y44370000D01*
X224790000Y44370000D02*
X224790000Y41990000D01*
X224790000Y41990000D02*
X224790000Y40640000D01*
X35560000Y46355000D02*
X35560000Y39370000D01*
X35560000Y39370000D02*
X38100000Y36830000D01*
X54690000Y34290000D02*
X99410000Y34290000D01*
X99410000Y34290000D02*
X105410000Y28290000D01*
X38100000Y36830000D02*
X52150000Y36830000D01*
X52150000Y36830000D02*
X54690000Y34290000D01*
X105410000Y28290000D02*
X105410000Y27940000D01*
X35560000Y46355000D02*
X36275000Y46355000D01*
X27225000Y46355000D02*
X35560000Y46355000D01*
X26670000Y48260000D02*
X26670000Y46910000D01*
X36830000Y46910000D02*
X36830000Y48260000D01*
X26670000Y46910000D02*
X27225000Y46355000D01*
X36275000Y46355000D02*
X36830000Y46910000D01*
X107950000Y27940000D02*
X107950000Y29290000D01*
X107950000Y29290000D02*
X102315000Y34925000D01*
X102315000Y34925000D02*
X59690000Y34925000D01*
X59690000Y34925000D02*
X58420000Y36195000D01*
X58420000Y36195000D02*
X58420000Y38735000D01*
X58420000Y38735000D02*
X58420000Y40640000D01*
X52070000Y39370000D02*
X52705000Y38735000D01*
X52705000Y38735000D02*
X58420000Y38735000D01*
X52070000Y41910000D02*
X52070000Y39370000D01*
X51435000Y42545000D02*
X52070000Y41910000D01*
X48815000Y42545000D02*
X51435000Y42545000D01*
X48260000Y40640000D02*
X48260000Y41990000D01*
X48260000Y41990000D02*
X48815000Y42545000D01*
D23*
X58420000Y40640000D02*
X58420000Y40290000D01*
X58420000Y40990000D02*
X58420000Y40640000D01*
D25*
X110490000Y27940000D02*
X110490000Y29290000D01*
X110490000Y29290000D02*
X104220000Y35560000D01*
X59690000Y46070000D02*
X59405000Y46355000D01*
X104220000Y35560000D02*
X62230000Y35560000D01*
X59690000Y38100000D02*
X59690000Y46070000D01*
X62230000Y35560000D02*
X59690000Y38100000D01*
X50800000Y48260000D02*
X50800000Y49610000D01*
X54610000Y46990000D02*
X55245000Y46355000D01*
X60960000Y47910000D02*
X60960000Y48260000D01*
X50800000Y49610000D02*
X51355000Y50165000D01*
X51355000Y50165000D02*
X53975000Y50165000D01*
X54610000Y49530000D02*
X54610000Y46990000D01*
X53975000Y50165000D02*
X54610000Y49530000D01*
X55245000Y46355000D02*
X59405000Y46355000D01*
X59405000Y46355000D02*
X60960000Y47910000D01*
X60960000Y48610000D02*
X60960000Y48260000D01*
D23*
X50800000Y47910000D02*
X50800000Y48260000D01*
D25*
X82550000Y38735000D02*
X82550000Y40640000D01*
X113030000Y27940000D02*
X113030000Y29290000D01*
X113030000Y29290000D02*
X106125000Y36195000D01*
X106125000Y36195000D02*
X85090000Y36195000D01*
X85090000Y36195000D02*
X82550000Y38735000D01*
X76200000Y39370000D02*
X76835000Y38735000D01*
X72390000Y40640000D02*
X72390000Y41990000D01*
X76835000Y38735000D02*
X82550000Y38735000D01*
X72390000Y41990000D02*
X72945000Y42545000D01*
X72945000Y42545000D02*
X75565000Y42545000D01*
X75565000Y42545000D02*
X76200000Y41910000D01*
X76200000Y41910000D02*
X76200000Y39370000D01*
X115570000Y27940000D02*
X115570000Y29290000D01*
X115570000Y29290000D02*
X108030000Y36830000D01*
X83820000Y38735000D02*
X83820000Y43708616D01*
X108030000Y36830000D02*
X85725000Y36830000D01*
X85725000Y36830000D02*
X83820000Y38735000D01*
X85090000Y48260000D02*
X85090000Y46910000D01*
X85090000Y46910000D02*
X83820000Y45640000D01*
X83820000Y45640000D02*
X83820000Y43708616D01*
X81749992Y45778624D02*
X83820000Y43708616D01*
X81173616Y46355000D02*
X81749992Y45778624D01*
X80645000Y46355000D02*
X81173616Y46355000D01*
X74930000Y48260000D02*
X74930000Y48610000D01*
X78740000Y46990000D02*
X79375000Y46355000D01*
X74930000Y48610000D02*
X76485000Y50165000D01*
X76485000Y50165000D02*
X78105000Y50165000D01*
X78105000Y50165000D02*
X78740000Y49530000D01*
X78740000Y49530000D02*
X78740000Y46990000D01*
X79375000Y46355000D02*
X80645000Y46355000D01*
X118110000Y27940000D02*
X118110000Y29290000D01*
X118110000Y29290000D02*
X109935000Y37465000D01*
X109935000Y37465000D02*
X104140000Y37465000D01*
X103505000Y38100000D02*
X103505000Y38735000D01*
X104140000Y37465000D02*
X103505000Y38100000D01*
X100965000Y38735000D02*
X103505000Y38735000D01*
X103505000Y38735000D02*
X105125000Y38735000D01*
X96520000Y40640000D02*
X96520000Y41990000D01*
X105125000Y38735000D02*
X106680000Y40290000D01*
X96520000Y41990000D02*
X97075000Y42545000D01*
X97075000Y42545000D02*
X99695000Y42545000D01*
X99695000Y42545000D02*
X100330000Y41910000D01*
X100330000Y41910000D02*
X100330000Y39370000D01*
X100330000Y39370000D02*
X100965000Y38735000D01*
X106680000Y40290000D02*
X106680000Y40640000D01*
X120650000Y27940000D02*
X120650000Y28290000D01*
X120650000Y28290000D02*
X110840000Y38100000D01*
X110840000Y38100000D02*
X108585000Y38100000D01*
X108585000Y38100000D02*
X107950000Y38735000D01*
X107950000Y38735000D02*
X107950000Y46070000D01*
X107950000Y46070000D02*
X107665000Y46355000D01*
X99060000Y48260000D02*
X99060000Y48610000D01*
X107665000Y46355000D02*
X109220000Y47910000D01*
X99060000Y48610000D02*
X100615000Y50165000D01*
X100615000Y50165000D02*
X102235000Y50165000D01*
X102235000Y50165000D02*
X102870000Y49530000D01*
X102870000Y49530000D02*
X102870000Y46990000D01*
X102870000Y46990000D02*
X103505000Y46355000D01*
X109220000Y47910000D02*
X109220000Y48260000D01*
X103505000Y46355000D02*
X107665000Y46355000D01*
X109220000Y48610000D02*
X109220000Y48260000D01*
X123190000Y34290000D02*
X120650000Y36830000D01*
X120650000Y36830000D02*
X120650000Y40640000D01*
X123190000Y27940000D02*
X123190000Y34290000D01*
X130810000Y40640000D02*
X130810000Y40290000D01*
X129255000Y38735000D02*
X122205000Y38735000D01*
X130810000Y40290000D02*
X129255000Y38735000D01*
X122205000Y38735000D02*
X120650000Y40290000D01*
X120650000Y40290000D02*
X120650000Y40640000D01*
X109855000Y10795000D02*
X109220000Y11430000D01*
X111125000Y10795000D02*
X109855000Y10795000D01*
X111760000Y11430000D02*
X111125000Y10795000D01*
X111760000Y12064351D02*
X111760000Y11430000D01*
X111760000Y13970000D02*
X111760000Y12064351D01*
X112395000Y14605000D02*
X111760000Y13970000D01*
X113665000Y14605000D02*
X112395000Y14605000D01*
X114300000Y13970000D02*
X113665000Y14605000D01*
X114300000Y10795000D02*
X114300000Y13970000D01*
X115570000Y9525000D02*
X114300000Y10795000D01*
X118110000Y9525000D02*
X119380000Y9525000D01*
X118110000Y9525000D02*
X115570000Y9525000D01*
X128905000Y46355000D02*
X128905000Y45720000D01*
X122555000Y23495000D02*
X116840000Y23495000D01*
X109220000Y15875000D02*
X109220000Y11430000D01*
X128905000Y45720000D02*
X132080000Y42545000D01*
X132080000Y42545000D02*
X132080000Y39370000D01*
X132080000Y39370000D02*
X124460000Y31750000D01*
X124460000Y25400000D02*
X122555000Y23495000D01*
X124460000Y31750000D02*
X124460000Y25400000D01*
X116840000Y23495000D02*
X109220000Y15875000D01*
X119380000Y9525000D02*
X120650000Y10795000D01*
X120650000Y10795000D02*
X120650000Y12700000D01*
X128905000Y46355000D02*
X132795000Y46355000D01*
X132795000Y46355000D02*
X133350000Y46910000D01*
X133350000Y46910000D02*
X133350000Y48260000D01*
X123190000Y48260000D02*
X123190000Y49610000D01*
X127000000Y49530000D02*
X127000000Y46990000D01*
X123190000Y49610000D02*
X123745000Y50165000D01*
X123745000Y50165000D02*
X126365000Y50165000D01*
X126365000Y50165000D02*
X127000000Y49530000D01*
X127000000Y46990000D02*
X127635000Y46355000D01*
X127635000Y46355000D02*
X128905000Y46355000D01*
X133350000Y48610000D02*
X133350000Y48260000D01*
X153035000Y35490685D02*
X153035000Y34925000D01*
X153035000Y36585000D02*
X153035000Y35490685D01*
X154940000Y38490000D02*
X153035000Y36585000D01*
X147320000Y22860000D02*
X127920000Y22860000D01*
X127920000Y22860000D02*
X118110000Y13050000D01*
X118110000Y13050000D02*
X118110000Y12700000D01*
X153035000Y28575000D02*
X147320000Y22860000D01*
X148590000Y39370000D02*
X149470000Y38490000D01*
X149470000Y38490000D02*
X154940000Y38490000D01*
X148590000Y41910000D02*
X148590000Y39370000D01*
X147955000Y42545000D02*
X148590000Y41910000D01*
X145335000Y42545000D02*
X147955000Y42545000D01*
X144780000Y40640000D02*
X144780000Y41990000D01*
X144780000Y41990000D02*
X145335000Y42545000D01*
D23*
X154940000Y40640000D02*
X154940000Y38490000D01*
D25*
X111760000Y15875000D02*
X110490000Y14605000D01*
X110490000Y14605000D02*
X110490000Y12700000D01*
X116205000Y15875000D02*
X111760000Y15875000D01*
X124460000Y24130000D02*
X116205000Y15875000D01*
X144780000Y24130000D02*
X124460000Y24130000D01*
X149225000Y28575000D02*
X144780000Y24130000D01*
X150495000Y33655000D02*
X149225000Y32385000D01*
X155575000Y33655000D02*
X150495000Y33655000D01*
X156210000Y46070000D02*
X156210000Y34290000D01*
X156210000Y34290000D02*
X155575000Y33655000D01*
X155925000Y46355000D02*
X156210000Y46070000D01*
X147320000Y48260000D02*
X147320000Y48610000D01*
X147320000Y48610000D02*
X148875000Y50165000D01*
X148875000Y50165000D02*
X150495000Y50165000D01*
X157480000Y47910000D02*
X157480000Y48260000D01*
X150495000Y50165000D02*
X151130000Y49530000D01*
X151765000Y46355000D02*
X155925000Y46355000D01*
X151130000Y49530000D02*
X151130000Y46990000D01*
X151130000Y46990000D02*
X151765000Y46355000D01*
X155925000Y46355000D02*
X157480000Y47910000D01*
X157480000Y48610000D02*
X157480000Y48260000D01*
X172720000Y39370000D02*
X172720000Y38100000D01*
X168910000Y34290000D02*
X158115000Y34290000D01*
X158115000Y34290000D02*
X156210000Y32385000D01*
X172720000Y38100000D02*
X168910000Y34290000D01*
X152330685Y32385000D02*
X151765000Y32385000D01*
X156210000Y32385000D02*
X152330685Y32385000D01*
X151765000Y28575000D02*
X146685000Y23495000D01*
X146685000Y23495000D02*
X126015000Y23495000D01*
X126015000Y23495000D02*
X115570000Y13050000D01*
X115570000Y13050000D02*
X115570000Y12700000D01*
X173355000Y38735000D02*
X177515000Y38735000D01*
X177515000Y38735000D02*
X179070000Y40290000D01*
X179070000Y40290000D02*
X179070000Y40640000D01*
X172720000Y39370000D02*
X173355000Y38735000D01*
X172720000Y41910000D02*
X172720000Y39370000D01*
X172085000Y42545000D02*
X172720000Y41910000D01*
X169465000Y42545000D02*
X172085000Y42545000D01*
X168910000Y40640000D02*
X168910000Y41990000D01*
X168910000Y41990000D02*
X169465000Y42545000D01*
X180340000Y38100000D02*
X180340000Y46070000D01*
X127555000Y31115000D02*
X156210000Y31115000D01*
X180340000Y46070000D02*
X180055000Y46355000D01*
X125730000Y27940000D02*
X125730000Y29290000D01*
X125730000Y29290000D02*
X127555000Y31115000D01*
X175895000Y33655000D02*
X180340000Y38100000D01*
X156210000Y31115000D02*
X158750000Y33655000D01*
X158750000Y33655000D02*
X175895000Y33655000D01*
X177165000Y46355000D02*
X180055000Y46355000D01*
X180055000Y46355000D02*
X181610000Y47910000D01*
X181610000Y47910000D02*
X181610000Y48260000D01*
X171450000Y48260000D02*
X171450000Y48610000D01*
X171450000Y48610000D02*
X173005000Y50165000D01*
X175895000Y46355000D02*
X177165000Y46355000D01*
X173005000Y50165000D02*
X174625000Y50165000D01*
X181610000Y48610000D02*
X181610000Y48260000D01*
X174625000Y50165000D02*
X175260000Y49530000D01*
X175260000Y49530000D02*
X175260000Y46990000D01*
X175260000Y46990000D02*
X175895000Y46355000D01*
X196850000Y38735000D02*
X189865000Y31750000D01*
X189865000Y31750000D02*
X162560000Y31750000D01*
X162560000Y31750000D02*
X161690011Y32619989D01*
X161690011Y32619989D02*
X158984989Y32619989D01*
X158984989Y32619989D02*
X158514999Y32149999D01*
X158514999Y32149999D02*
X158115000Y31750000D01*
X151130000Y21590000D02*
X131730000Y21590000D01*
X131730000Y21590000D02*
X123190000Y13050000D01*
X123190000Y13050000D02*
X123190000Y12700000D01*
X158115000Y28575000D02*
X151130000Y21590000D01*
X203200000Y40290000D02*
X203200000Y40640000D01*
X201645000Y38735000D02*
X203200000Y40290000D01*
X196850000Y38735000D02*
X201645000Y38735000D01*
X193040000Y40640000D02*
X193040000Y40990000D01*
X193040000Y40990000D02*
X194595000Y42545000D01*
X194595000Y42545000D02*
X196215000Y42545000D01*
X196215000Y42545000D02*
X196850000Y41910000D01*
X196850000Y41910000D02*
X196850000Y38735000D01*
X193040000Y40640000D02*
X193040000Y40290000D01*
X201295000Y46355000D02*
X204185000Y46355000D01*
X204185000Y46355000D02*
X205740000Y47910000D01*
X205740000Y47910000D02*
X205740000Y48260000D01*
X195580000Y48260000D02*
X195580000Y49610000D01*
X195580000Y49610000D02*
X196135000Y50165000D01*
X196135000Y50165000D02*
X198755000Y50165000D01*
X198755000Y50165000D02*
X199390000Y49530000D01*
X199390000Y49530000D02*
X199390000Y46990000D01*
X201295000Y46355000D02*
X204470000Y43180000D01*
X199390000Y46990000D02*
X200025000Y46355000D01*
X190500000Y31115000D02*
X161290000Y31115000D01*
X200025000Y46355000D02*
X201295000Y46355000D01*
X204470000Y43180000D02*
X204470000Y39370000D01*
X204470000Y39370000D02*
X203200000Y38100000D01*
X161290000Y31115000D02*
X160655000Y31750000D01*
X203200000Y38100000D02*
X197485000Y38100000D01*
X197485000Y38100000D02*
X190500000Y31115000D01*
X160655000Y28575000D02*
X152400000Y20320000D01*
X152400000Y20320000D02*
X133000000Y20320000D01*
X133000000Y20320000D02*
X125730000Y13050000D01*
X125730000Y13050000D02*
X125730000Y12700000D01*
X205740000Y48610000D02*
X205740000Y48260000D01*
X128270000Y27940000D02*
X128270000Y29290000D01*
X218440000Y35560000D02*
X221615000Y38735000D01*
X128270000Y29290000D02*
X129460000Y30480000D01*
X129460000Y30480000D02*
X191135000Y30480000D01*
X191135000Y30480000D02*
X196215000Y35560000D01*
X196215000Y35560000D02*
X218440000Y35560000D01*
X221615000Y38735000D02*
X225775000Y38735000D01*
X225775000Y38735000D02*
X227330000Y40290000D01*
X227330000Y40290000D02*
X227330000Y40640000D01*
X220980000Y39370000D02*
X221615000Y38735000D01*
X220980000Y41910000D02*
X220980000Y39370000D01*
X220345000Y42545000D02*
X220980000Y41910000D01*
X217725000Y42545000D02*
X220345000Y42545000D01*
X217170000Y40640000D02*
X217170000Y41990000D01*
X217170000Y41990000D02*
X217725000Y42545000D01*
X130810000Y27940000D02*
X130810000Y29290000D01*
X228600000Y38735000D02*
X228600000Y46355000D01*
X130810000Y29290000D02*
X131365000Y29845000D01*
X131365000Y29845000D02*
X191770000Y29845000D01*
X191770000Y29845000D02*
X196850000Y34925000D01*
X196850000Y34925000D02*
X224790000Y34925000D01*
X224790000Y34925000D02*
X228600000Y38735000D01*
X219710000Y48260000D02*
X219710000Y49610000D01*
X219710000Y49610000D02*
X220265000Y50165000D01*
X220265000Y50165000D02*
X222885000Y50165000D01*
X222885000Y50165000D02*
X223520000Y49530000D01*
X224155000Y46355000D02*
X228600000Y46355000D01*
X223520000Y49530000D02*
X223520000Y46990000D01*
X223520000Y46990000D02*
X224155000Y46355000D01*
X228600000Y46355000D02*
X229870000Y47625000D01*
X229870000Y47625000D02*
X229870000Y48260000D01*
X40640000Y22225000D02*
X42545000Y22225000D01*
X42545000Y22225000D02*
X43815000Y23495000D01*
X43815000Y29210000D02*
X42545000Y30480000D01*
X43815000Y23495000D02*
X43815000Y29210000D01*
X42545000Y30480000D02*
X36195000Y30480000D01*
X36195000Y30480000D02*
X35560000Y31115000D01*
X35560000Y36195000D02*
X33020000Y38735000D01*
X35560000Y31115000D02*
X35560000Y36195000D01*
X33020000Y38735000D02*
X33020000Y42545000D01*
X31749351Y43815649D02*
X27939351Y43815649D01*
X33020000Y42545000D02*
X31749351Y43815649D01*
X25400000Y46355000D02*
X25400000Y49530000D01*
X27939351Y43815649D02*
X25400000Y46355000D01*
X25400000Y49530000D02*
X26035000Y50165000D01*
X26035000Y50165000D02*
X28655000Y50165000D01*
X28655000Y50165000D02*
X29210000Y49610000D01*
X29210000Y49610000D02*
X29210000Y48260000D01*
X82550000Y27305000D02*
X82550000Y28294949D01*
X82550000Y28294949D02*
X82550000Y29845000D01*
X82550000Y27305000D02*
X81560051Y27305000D01*
X81560051Y27305000D02*
X79375000Y27305000D01*
X102870000Y27940000D02*
X102870000Y26590000D01*
X102870000Y26590000D02*
X97235000Y20955000D01*
X97235000Y20955000D02*
X89535000Y20955000D01*
X89535000Y20955000D02*
X88900000Y21590000D01*
X88900000Y21590000D02*
X88900000Y26035000D01*
X88900000Y26035000D02*
X90170000Y27305000D01*
X79375000Y24765000D02*
X82550000Y24765000D01*
X76200000Y24765000D02*
X79375000Y24765000D01*
X100330000Y27940000D02*
X100330000Y29290000D01*
X94615000Y24765000D02*
X91159949Y24765000D01*
X100330000Y29290000D02*
X99775000Y29845000D01*
X99775000Y29845000D02*
X97155000Y29845000D01*
X97155000Y29845000D02*
X96520000Y29210000D01*
X96520000Y29210000D02*
X96520000Y26670000D01*
X96520000Y26670000D02*
X94615000Y24765000D01*
X91159949Y24765000D02*
X90170000Y24765000D01*
X79375000Y22225000D02*
X76200000Y22225000D01*
X79375000Y22225000D02*
X82550000Y22225000D01*
X97790000Y27940000D02*
X97790000Y26590000D01*
X97790000Y26590000D02*
X93425000Y22225000D01*
X93425000Y22225000D02*
X91159949Y22225000D01*
X91159949Y22225000D02*
X90170000Y22225000D01*
X82550000Y19685000D02*
X79375000Y19685000D01*
X76200000Y19685000D02*
X79375000Y19685000D01*
X90170000Y19685000D02*
X95250000Y14605000D01*
X95250000Y14605000D02*
X95250000Y12700000D01*
X79375000Y17145000D02*
X76200000Y17145000D01*
X82550000Y17145000D02*
X79375000Y17145000D01*
X90170000Y17145000D02*
X93345000Y13970000D01*
X93345000Y13970000D02*
X93345000Y12065000D01*
X93345000Y12065000D02*
X94615000Y10795000D01*
X94615000Y10795000D02*
X96235000Y10795000D01*
X96235000Y10795000D02*
X97790000Y12350000D01*
X97790000Y12350000D02*
X97790000Y12700000D01*
X79375000Y14605000D02*
X82550000Y14605000D01*
X76200000Y14605000D02*
X79375000Y14605000D01*
X90170000Y14605000D02*
X90170000Y13970000D01*
X90170000Y13970000D02*
X93980000Y10160000D01*
X93980000Y10160000D02*
X98140000Y10160000D01*
X98140000Y10160000D02*
X100330000Y12350000D01*
X100330000Y12350000D02*
X100330000Y12700000D01*
X76200000Y12065000D02*
X79375000Y12065000D01*
X79375000Y12065000D02*
X82550000Y12065000D01*
X90170000Y12065000D02*
X92710000Y9525000D01*
X92710000Y9525000D02*
X100045000Y9525000D01*
X100045000Y9525000D02*
X102870000Y12350000D01*
X102870000Y12350000D02*
X102870000Y12700000D01*
X90170000Y9525000D02*
X90805000Y8890000D01*
X90805000Y8890000D02*
X101950000Y8890000D01*
X101950000Y8890000D02*
X105410000Y12350000D01*
X105410000Y12350000D02*
X105410000Y12700000D01*
X101600000Y48260000D02*
X101600000Y46910000D01*
X101600000Y46910000D02*
X104140000Y44370000D01*
X104140000Y44370000D02*
X104140000Y41990000D01*
X104140000Y41990000D02*
X104140000Y40640000D01*
X123190000Y40640000D02*
X123190000Y40990000D01*
X123190000Y40990000D02*
X121635000Y42545000D01*
X121635000Y42545000D02*
X120015000Y42545000D01*
X120015000Y42545000D02*
X119380000Y41910000D01*
X116840000Y38735000D02*
X116205000Y39370000D01*
X119380000Y41910000D02*
X119380000Y39370000D01*
X116205000Y39370000D02*
X116205000Y53340000D01*
X119380000Y39370000D02*
X118745000Y38735000D01*
X118745000Y38735000D02*
X116840000Y38735000D01*
X116205000Y53340000D02*
X115570000Y53975000D01*
X115570000Y53975000D02*
X111045000Y53975000D01*
X111045000Y53975000D02*
X106680000Y49610000D01*
X106680000Y49610000D02*
X106680000Y48260000D01*
X32385000Y17940000D02*
X33384999Y16940001D01*
X33384999Y16940001D02*
X44115001Y16940001D01*
X44115001Y16940001D02*
X46860000Y19685000D01*
X46860000Y19685000D02*
X48260000Y19685000D01*
X48260000Y22225000D02*
X49530000Y22225000D01*
X49530000Y22225000D02*
X51370001Y20384999D01*
X51370001Y20384999D02*
X52070000Y19685000D01*
X48260000Y22225000D02*
X47860000Y22225000D01*
X47860000Y22225000D02*
X43415000Y17780000D01*
X43415000Y17780000D02*
X38735000Y17780000D01*
X38735000Y17780000D02*
X35560000Y20955000D01*
X35560000Y20955000D02*
X35560000Y24130000D01*
X35560000Y24130000D02*
X36195000Y24765000D01*
X36195000Y24765000D02*
X40640000Y24765000D01*
X40240000Y24765000D02*
X40640000Y24765000D01*
D24*
X52070000Y13970000D02*
X52070000Y19685000D01*
D25*
X24685000Y24765000D02*
X28575000Y20875000D01*
X53975000Y13335000D02*
X53975000Y26670000D01*
X28575000Y20875000D02*
X28575000Y15875000D01*
X28575000Y15875000D02*
X32385000Y12065000D01*
X32385000Y12065000D02*
X52705000Y12065000D01*
X52705000Y12065000D02*
X53975000Y13335000D01*
X53975000Y26670000D02*
X53340000Y27305000D01*
X53340000Y27305000D02*
X52070000Y27305000D01*
X48260000Y24765000D02*
X48660000Y24765000D01*
X48660000Y24765000D02*
X51200000Y27305000D01*
X51200000Y27305000D02*
X52070000Y27305000D01*
X30480000Y31750000D02*
X26035000Y27305000D01*
X26035000Y27305000D02*
X23495000Y27305000D01*
X23495000Y27305000D02*
X22860000Y26670000D01*
X22860000Y26670000D02*
X22860000Y21590000D01*
X22860000Y21590000D02*
X24685000Y19765000D01*
X147795000Y11270000D02*
X143510000Y6985000D01*
X139065000Y7620000D02*
X139700000Y6985000D01*
X139700000Y6985000D02*
X143510000Y6985000D01*
X139065000Y9525000D02*
X139065000Y7620000D01*
X133985000Y14605000D02*
X139065000Y9525000D01*
X130175000Y14605000D02*
X133985000Y14605000D01*
X129540000Y13970000D02*
X130175000Y14605000D01*
X129540000Y10795000D02*
X129540000Y13970000D01*
X125095000Y6350000D02*
X129540000Y10795000D01*
X85725000Y6350000D02*
X83249999Y8825001D01*
X85725000Y6350000D02*
X125095000Y6350000D01*
X153035000Y7780000D02*
X151285000Y7780000D01*
X151285000Y7780000D02*
X147795000Y11270000D01*
X147795000Y13970000D02*
X147795000Y11270000D01*
X83249999Y8825001D02*
X82550000Y9525000D01*
X82550000Y9525000D02*
X79375000Y9525000D01*
X153035000Y17780000D02*
X158275000Y17780000D01*
X158275000Y17780000D02*
X160735000Y20240000D01*
D24*
X205105000Y17780000D02*
X204705000Y17780000D01*
X204705000Y17780000D02*
X202525000Y19960000D01*
X202525000Y19960000D02*
X202525000Y22998630D01*
X202525000Y22998630D02*
X202525000Y24130000D01*
D25*
X197485000Y20320000D02*
X197485000Y28265000D01*
X197485000Y28265000D02*
X199065000Y29845000D01*
X199065000Y29845000D02*
X200065000Y29845000D01*
X205105000Y20320000D02*
X205105000Y27305000D01*
X205105000Y27305000D02*
X202565000Y29845000D01*
X199390000Y8890000D02*
X202605000Y8890000D01*
X205105000Y12700000D02*
X210225000Y12700000D01*
X205105000Y8890000D02*
X205105000Y12700000D01*
D24*
X212725000Y12700000D02*
X215265000Y15240000D01*
X215265000Y15240000D02*
X226060000Y15240000D01*
D25*
X191770000Y13335000D02*
X193675000Y15240000D01*
X193675000Y15240000D02*
X197485000Y15240000D01*
X160735000Y15240000D02*
X162640000Y13335000D01*
X162640000Y13335000D02*
X191770000Y13335000D01*
X50800000Y40640000D02*
X50800000Y39290000D01*
X34925000Y53975000D02*
X34290000Y53340000D01*
X50800000Y39290000D02*
X50245000Y38735000D01*
X43815000Y39370000D02*
X43815000Y53340000D01*
X50245000Y38735000D02*
X44450000Y38735000D01*
X44450000Y38735000D02*
X43815000Y39370000D01*
X43180000Y53975000D02*
X34925000Y53975000D01*
X43815000Y53340000D02*
X43180000Y53975000D01*
X34290000Y53340000D02*
X34290000Y48260000D01*
D23*
X34290000Y48260000D02*
X34290000Y47910000D01*
X50800000Y40290000D02*
X50800000Y40640000D01*
M02*
