G04 #@! TF.FileFunction,Copper,L1,Top,Signal*
%FSLAX46Y46*%
G04 Gerber Fmt 4.6, Leading zero omitted, Abs format (unit mm)*
G04 Created by KiCad (PCBNEW 4.0.7-e2-6376~58~ubuntu16.04.1) date Wed Apr  4 21:12:27 2018*
%MOMM*%
%LPD*%
G01*
G04 APERTURE LIST*
%ADD10C,0.100000*%
%ADD11O,1.600000X2.300000*%
%ADD12C,1.400000*%
%ADD13O,1.400000X1.400000*%
%ADD14C,2.000000*%
%ADD15C,2.340000*%
%ADD16R,2.400000X1.600000*%
%ADD17O,2.400000X1.600000*%
%ADD18R,1.600000X1.600000*%
%ADD19C,1.600000*%
%ADD20R,1.700000X1.700000*%
%ADD21O,1.700000X1.700000*%
%ADD22C,0.800000*%
%ADD23C,1.000000*%
%ADD24C,0.500000*%
%ADD25C,0.200000*%
G04 APERTURE END LIST*
D10*
D11*
X21590000Y40640000D03*
X24130000Y40640000D03*
X26670000Y40640000D03*
X29210000Y40640000D03*
X31750000Y40640000D03*
X34290000Y40640000D03*
X36830000Y40640000D03*
X36830000Y48260000D03*
X34290000Y48260000D03*
X31750000Y48260000D03*
X29210000Y48260000D03*
X26670000Y48260000D03*
X24130000Y48260000D03*
X21590000Y48260000D03*
D12*
X90170000Y19685000D03*
D13*
X82550000Y19685000D03*
D11*
X133350000Y27940000D03*
X130810000Y27940000D03*
X128270000Y27940000D03*
X125730000Y27940000D03*
X123190000Y27940000D03*
X120650000Y27940000D03*
X118110000Y27940000D03*
X115570000Y27940000D03*
X113030000Y27940000D03*
X110490000Y27940000D03*
X107950000Y27940000D03*
X105410000Y27940000D03*
X102870000Y27940000D03*
X100330000Y27940000D03*
X97790000Y27940000D03*
X95250000Y27940000D03*
X95250000Y12700000D03*
X97790000Y12700000D03*
X100330000Y12700000D03*
X102870000Y12700000D03*
X105410000Y12700000D03*
X107950000Y12700000D03*
X110490000Y12700000D03*
X113030000Y12700000D03*
X115570000Y12700000D03*
X118110000Y12700000D03*
X120650000Y12700000D03*
X123190000Y12700000D03*
X125730000Y12700000D03*
X128270000Y12700000D03*
X130810000Y12700000D03*
X133350000Y12700000D03*
D12*
X30480000Y31750000D03*
D13*
X38100000Y31750000D03*
D11*
X69850000Y40640000D03*
X72390000Y40640000D03*
X74930000Y40640000D03*
X77470000Y40640000D03*
X80010000Y40640000D03*
X82550000Y40640000D03*
X85090000Y40640000D03*
X85090000Y48260000D03*
X82550000Y48260000D03*
X80010000Y48260000D03*
X77470000Y48260000D03*
X74930000Y48260000D03*
X72390000Y48260000D03*
X69850000Y48260000D03*
X166370000Y40640000D03*
X168910000Y40640000D03*
X171450000Y40640000D03*
X173990000Y40640000D03*
X176530000Y40640000D03*
X179070000Y40640000D03*
X181610000Y40640000D03*
X181610000Y48260000D03*
X179070000Y48260000D03*
X176530000Y48260000D03*
X173990000Y48260000D03*
X171450000Y48260000D03*
X168910000Y48260000D03*
X166370000Y48260000D03*
X45720000Y40640000D03*
X48260000Y40640000D03*
X50800000Y40640000D03*
X53340000Y40640000D03*
X55880000Y40640000D03*
X58420000Y40640000D03*
X60960000Y40640000D03*
X60960000Y48260000D03*
X58420000Y48260000D03*
X55880000Y48260000D03*
X53340000Y48260000D03*
X50800000Y48260000D03*
X48260000Y48260000D03*
X45720000Y48260000D03*
X93980000Y40640000D03*
X96520000Y40640000D03*
X99060000Y40640000D03*
X101600000Y40640000D03*
X104140000Y40640000D03*
X106680000Y40640000D03*
X109220000Y40640000D03*
X109220000Y48260000D03*
X106680000Y48260000D03*
X104140000Y48260000D03*
X101600000Y48260000D03*
X99060000Y48260000D03*
X96520000Y48260000D03*
X93980000Y48260000D03*
X118110000Y40640000D03*
X120650000Y40640000D03*
X123190000Y40640000D03*
X125730000Y40640000D03*
X128270000Y40640000D03*
X130810000Y40640000D03*
X133350000Y40640000D03*
X133350000Y48260000D03*
X130810000Y48260000D03*
X128270000Y48260000D03*
X125730000Y48260000D03*
X123190000Y48260000D03*
X120650000Y48260000D03*
X118110000Y48260000D03*
X142240000Y40640000D03*
X144780000Y40640000D03*
X147320000Y40640000D03*
X149860000Y40640000D03*
X152400000Y40640000D03*
X154940000Y40640000D03*
X157480000Y40640000D03*
X157480000Y48260000D03*
X154940000Y48260000D03*
X152400000Y48260000D03*
X149860000Y48260000D03*
X147320000Y48260000D03*
X144780000Y48260000D03*
X142240000Y48260000D03*
X190500000Y40640000D03*
X193040000Y40640000D03*
X195580000Y40640000D03*
X198120000Y40640000D03*
X200660000Y40640000D03*
X203200000Y40640000D03*
X205740000Y40640000D03*
X205740000Y48260000D03*
X203200000Y48260000D03*
X200660000Y48260000D03*
X198120000Y48260000D03*
X195580000Y48260000D03*
X193040000Y48260000D03*
X190500000Y48260000D03*
X214630000Y40640000D03*
X217170000Y40640000D03*
X219710000Y40640000D03*
X222250000Y40640000D03*
X224790000Y40640000D03*
X227330000Y40640000D03*
X229870000Y40640000D03*
X229870000Y48260000D03*
X227330000Y48260000D03*
X224790000Y48260000D03*
X222250000Y48260000D03*
X219710000Y48260000D03*
X217170000Y48260000D03*
X214630000Y48260000D03*
D14*
X32385000Y17940000D03*
X32385000Y27940000D03*
D12*
X52070000Y19685000D03*
D13*
X52070000Y27305000D03*
D15*
X19685000Y19765000D03*
X19685000Y24765000D03*
X19685000Y29765000D03*
X24685000Y19765000D03*
X24685000Y24765000D03*
X24685000Y29765000D03*
D16*
X40640000Y27305000D03*
D17*
X48260000Y19685000D03*
X40640000Y24765000D03*
X48260000Y22225000D03*
X40640000Y22225000D03*
X48260000Y24765000D03*
X40640000Y19685000D03*
X48260000Y27305000D03*
D16*
X197485000Y20320000D03*
D17*
X205105000Y12700000D03*
X197485000Y17780000D03*
X205105000Y15240000D03*
X197485000Y15240000D03*
X205105000Y17780000D03*
X197485000Y12700000D03*
X205105000Y20320000D03*
D14*
X147795000Y13970000D03*
X137795000Y13970000D03*
X153035000Y17780000D03*
X153035000Y7780000D03*
D18*
X200065000Y29845000D03*
D19*
X202565000Y29845000D03*
D18*
X211455000Y21550000D03*
D19*
X211455000Y19050000D03*
D18*
X210225000Y12700000D03*
D19*
X212725000Y12700000D03*
D20*
X226060000Y15240000D03*
D21*
X226060000Y17780000D03*
D12*
X191770000Y8890000D03*
D13*
X199390000Y8890000D03*
D15*
X165735000Y20240000D03*
X165735000Y15240000D03*
X165735000Y10240000D03*
X160735000Y20240000D03*
X160735000Y15240000D03*
X160735000Y10240000D03*
D14*
X52070000Y13970000D03*
X42070000Y13970000D03*
D12*
X82550000Y29845000D03*
D13*
X90170000Y29845000D03*
D12*
X90170000Y27305000D03*
D13*
X82550000Y27305000D03*
D12*
X90170000Y24765000D03*
D13*
X82550000Y24765000D03*
D12*
X90170000Y22225000D03*
D13*
X82550000Y22225000D03*
D12*
X90170000Y17145000D03*
D13*
X82550000Y17145000D03*
D12*
X90170000Y14605000D03*
D13*
X82550000Y14605000D03*
D12*
X90170000Y12065000D03*
D13*
X82550000Y12065000D03*
D12*
X90170000Y9525000D03*
D13*
X82550000Y9525000D03*
D19*
X21550000Y52070000D03*
X19050000Y52070000D03*
X45045000Y52705000D03*
X42545000Y52705000D03*
X69175000Y52705000D03*
X66675000Y52705000D03*
X93305000Y52705000D03*
X90805000Y52705000D03*
X117435000Y52705000D03*
X114935000Y52705000D03*
X141565000Y52705000D03*
X139065000Y52705000D03*
X165695000Y52705000D03*
X163195000Y52705000D03*
X189825000Y52705000D03*
X187325000Y52705000D03*
X213955000Y52705000D03*
X211455000Y52705000D03*
X137795000Y8890000D03*
X140295000Y8890000D03*
X202525000Y24130000D03*
X200025000Y24130000D03*
X202605000Y8890000D03*
X205105000Y8890000D03*
X37425000Y23535000D03*
X37425000Y26035000D03*
D12*
X79375000Y24765000D03*
D13*
X79375000Y27305000D03*
D12*
X76200000Y22225000D03*
D13*
X76200000Y24765000D03*
D12*
X79375000Y19685000D03*
D13*
X79375000Y22225000D03*
D12*
X76200000Y17145000D03*
D13*
X76200000Y19685000D03*
D12*
X79375000Y14605000D03*
D13*
X79375000Y17145000D03*
D12*
X76200000Y12065000D03*
D13*
X76200000Y14605000D03*
D12*
X79375000Y9525000D03*
D13*
X79375000Y12065000D03*
D20*
X226060000Y25400000D03*
D21*
X226060000Y27940000D03*
D22*
X107950000Y5080000D03*
X107950000Y7620000D03*
X230505000Y57150000D03*
X230505000Y52705000D03*
X207645000Y57150000D03*
X183515000Y57150000D03*
X159385000Y57150000D03*
X135255000Y57150000D03*
X111125000Y57150000D03*
X62865000Y57150000D03*
X38735000Y57150000D03*
X38735000Y52705000D03*
X62865000Y52705000D03*
X86995000Y57150000D03*
X207645000Y52705000D03*
X183515000Y52705000D03*
X159385000Y52705000D03*
X135255000Y52705000D03*
X111125000Y52705000D03*
X86995000Y52705000D03*
X153035000Y34925000D03*
X153035000Y28575000D03*
X149225000Y28575000D03*
X149225000Y32385000D03*
X151765000Y28575000D03*
X151765000Y32385000D03*
X158115000Y28575000D03*
X158115000Y31750000D03*
X160655000Y28575000D03*
X160655000Y31750000D03*
D23*
X107950000Y7620000D02*
X107950000Y5080000D01*
X230505000Y52705000D02*
X230505000Y57150000D01*
D24*
X207645000Y52705000D02*
X207645000Y57150000D01*
X183515000Y52705000D02*
X183515000Y57150000D01*
X159385000Y52705000D02*
X159385000Y57150000D01*
X135255000Y52705000D02*
X135255000Y57150000D01*
X111125000Y52705000D02*
X111125000Y57150000D01*
X62865000Y52705000D02*
X62865000Y57150000D01*
X38735000Y52705000D02*
X38735000Y57150000D01*
X86995000Y52705000D02*
X86995000Y57150000D01*
D23*
X74930000Y40990000D02*
X74930000Y40640000D01*
X154940000Y48260000D02*
X154940000Y47910000D01*
X36830000Y48260000D02*
X36830000Y47910000D01*
X48260000Y40640000D02*
X48260000Y40990000D01*
X82550000Y40990000D02*
X82550000Y40640000D01*
X72390000Y40640000D02*
X72390000Y40990000D01*
X74930000Y48260000D02*
X74930000Y47910000D01*
X106680000Y40990000D02*
X106680000Y40640000D01*
D25*
X153035000Y28575000D02*
X153035000Y34925000D01*
D23*
X154940000Y40640000D02*
X154940000Y40990000D01*
D25*
X149225000Y32385000D02*
X149225000Y28575000D01*
X151765000Y32385000D02*
X151765000Y28575000D01*
D23*
X179070000Y40990000D02*
X179070000Y40640000D01*
X171450000Y47910000D02*
X171450000Y48260000D01*
X181610000Y48260000D02*
X181541334Y48260000D01*
D25*
X158115000Y31750000D02*
X158115000Y28575000D01*
D23*
X193040000Y40990000D02*
X193040000Y40640000D01*
X203200000Y40640000D02*
X203131334Y40640000D01*
D25*
X160655000Y31750000D02*
X160655000Y28575000D01*
D23*
X195580000Y47910000D02*
X195580000Y48260000D01*
X217170000Y40290000D02*
X217170000Y40640000D01*
X50800000Y40640000D02*
X50800000Y40290000D01*
M02*
