M48
;DRILL file {KiCad 4.0.7-e2-6376~58~ubuntu16.04.1} date Wed Apr  4 21:11:55 2018
;FORMAT={-:-/ absolute / metric / decimal}
FMAT,2
METRIC,TZ
T1C0.400
T2C0.700
T3C0.800
T4C1.000
T5C1.300
%
G90
G05
M71
T1
X38.735Y57.15
X38.735Y52.705
X62.865Y57.15
X62.865Y52.705
X86.995Y57.15
X86.995Y52.705
X107.95Y7.62
X107.95Y5.08
X111.125Y57.15
X111.125Y52.705
X135.255Y57.15
X135.255Y52.705
X149.225Y32.385
X149.225Y28.575
X151.765Y32.385
X151.765Y28.575
X153.035Y34.925
X153.035Y28.575
X158.115Y31.75
X158.115Y28.575
X159.385Y57.15
X159.385Y52.705
X160.655Y31.75
X160.655Y28.575
X183.515Y57.15
X183.515Y52.705
X207.645Y57.15
X207.645Y52.705
X230.505Y57.15
X230.505Y52.705
T2
X30.48Y31.75
X38.1Y31.75
X52.07Y27.305
X52.07Y19.685
X76.2Y24.765
X76.2Y22.225
X76.2Y19.685
X76.2Y17.145
X76.2Y14.605
X76.2Y12.065
X79.375Y27.305
X79.375Y24.765
X79.375Y22.225
X79.375Y19.685
X79.375Y17.145
X79.375Y14.605
X79.375Y12.065
X79.375Y9.525
X82.55Y29.845
X82.55Y27.305
X82.55Y24.765
X82.55Y22.225
X82.55Y19.685
X82.55Y17.145
X82.55Y14.605
X82.55Y12.065
X82.55Y9.525
X90.17Y29.845
X90.17Y27.305
X90.17Y24.765
X90.17Y22.225
X90.17Y19.685
X90.17Y17.145
X90.17Y14.605
X90.17Y12.065
X90.17Y9.525
X191.77Y8.89
X199.39Y8.89
T3
X19.05Y52.07
X21.55Y52.07
X21.59Y48.26
X21.59Y40.64
X24.13Y48.26
X24.13Y40.64
X26.67Y48.26
X26.67Y40.64
X29.21Y48.26
X29.21Y40.64
X31.75Y48.26
X31.75Y40.64
X34.29Y48.26
X34.29Y40.64
X36.83Y48.26
X36.83Y40.64
X37.425Y26.035
X37.425Y23.535
X40.64Y27.305
X40.64Y24.765
X40.64Y22.225
X40.64Y19.685
X42.545Y52.705
X45.045Y52.705
X45.72Y48.26
X45.72Y40.64
X48.26Y48.26
X48.26Y40.64
X48.26Y27.305
X48.26Y24.765
X48.26Y22.225
X48.26Y19.685
X50.8Y48.26
X50.8Y40.64
X53.34Y48.26
X53.34Y40.64
X55.88Y48.26
X55.88Y40.64
X58.42Y48.26
X58.42Y40.64
X60.96Y48.26
X60.96Y40.64
X66.675Y52.705
X69.175Y52.705
X69.85Y48.26
X69.85Y40.64
X72.39Y48.26
X72.39Y40.64
X74.93Y48.26
X74.93Y40.64
X77.47Y48.26
X77.47Y40.64
X80.01Y48.26
X80.01Y40.64
X82.55Y48.26
X82.55Y40.64
X85.09Y48.26
X85.09Y40.64
X90.805Y52.705
X93.305Y52.705
X93.98Y48.26
X93.98Y40.64
X95.25Y27.94
X95.25Y12.7
X96.52Y48.26
X96.52Y40.64
X97.79Y27.94
X97.79Y12.7
X99.06Y48.26
X99.06Y40.64
X100.33Y27.94
X100.33Y12.7
X101.6Y48.26
X101.6Y40.64
X102.87Y27.94
X102.87Y12.7
X104.14Y48.26
X104.14Y40.64
X105.41Y27.94
X105.41Y12.7
X106.68Y48.26
X106.68Y40.64
X107.95Y27.94
X107.95Y12.7
X109.22Y48.26
X109.22Y40.64
X110.49Y27.94
X110.49Y12.7
X113.03Y27.94
X113.03Y12.7
X114.935Y52.705
X115.57Y27.94
X115.57Y12.7
X117.435Y52.705
X118.11Y48.26
X118.11Y40.64
X118.11Y27.94
X118.11Y12.7
X120.65Y48.26
X120.65Y40.64
X120.65Y27.94
X120.65Y12.7
X123.19Y48.26
X123.19Y40.64
X123.19Y27.94
X123.19Y12.7
X125.73Y48.26
X125.73Y40.64
X125.73Y27.94
X125.73Y12.7
X128.27Y48.26
X128.27Y40.64
X128.27Y27.94
X128.27Y12.7
X130.81Y48.26
X130.81Y40.64
X130.81Y27.94
X130.81Y12.7
X133.35Y48.26
X133.35Y40.64
X133.35Y27.94
X133.35Y12.7
X137.795Y8.89
X139.065Y52.705
X140.295Y8.89
X141.565Y52.705
X142.24Y48.26
X142.24Y40.64
X144.78Y48.26
X144.78Y40.64
X147.32Y48.26
X147.32Y40.64
X149.86Y48.26
X149.86Y40.64
X152.4Y48.26
X152.4Y40.64
X154.94Y48.26
X154.94Y40.64
X157.48Y48.26
X157.48Y40.64
X163.195Y52.705
X165.695Y52.705
X166.37Y48.26
X166.37Y40.64
X168.91Y48.26
X168.91Y40.64
X171.45Y48.26
X171.45Y40.64
X173.99Y48.26
X173.99Y40.64
X176.53Y48.26
X176.53Y40.64
X179.07Y48.26
X179.07Y40.64
X181.61Y48.26
X181.61Y40.64
X187.325Y52.705
X189.825Y52.705
X190.5Y48.26
X190.5Y40.64
X193.04Y48.26
X193.04Y40.64
X195.58Y48.26
X195.58Y40.64
X197.485Y20.32
X197.485Y17.78
X197.485Y15.24
X197.485Y12.7
X198.12Y48.26
X198.12Y40.64
X200.025Y24.13
X200.065Y29.845
X200.66Y48.26
X200.66Y40.64
X202.525Y24.13
X202.565Y29.845
X202.605Y8.89
X203.2Y48.26
X203.2Y40.64
X205.105Y20.32
X205.105Y17.78
X205.105Y15.24
X205.105Y12.7
X205.105Y8.89
X205.74Y48.26
X205.74Y40.64
X210.225Y12.7
X211.455Y52.705
X211.455Y21.55
X211.455Y19.05
X212.725Y12.7
X213.955Y52.705
X214.63Y48.26
X214.63Y40.64
X217.17Y48.26
X217.17Y40.64
X219.71Y48.26
X219.71Y40.64
X222.25Y48.26
X222.25Y40.64
X224.79Y48.26
X224.79Y40.64
X227.33Y48.26
X227.33Y40.64
X229.87Y48.26
X229.87Y40.64
T4
X32.385Y27.94
X32.385Y17.94
X42.07Y13.97
X52.07Y13.97
X137.795Y13.97
X147.795Y13.97
X153.035Y17.78
X153.035Y7.78
X226.06Y27.94
X226.06Y25.4
X226.06Y17.78
X226.06Y15.24
T5
X19.685Y29.765
X19.685Y24.765
X19.685Y19.765
X24.685Y29.765
X24.685Y24.765
X24.685Y19.765
X160.735Y20.24
X160.735Y15.24
X160.735Y10.24
X165.735Y20.24
X165.735Y15.24
X165.735Y10.24
T0
M30
